<svg xmlns="http://www.w3.org/2000/svg" width="1024" height="1024" version="1.1"><path fill="#F7F7F6" d="M0 0 C78.82784152 0 78.82784152 0 95.0625 5.625 C95.79799072 5.87660889 96.53348145 6.12821777 97.29125977 6.38745117 C110.02401759 10.96633366 120.92517453 18.01856644 131 27 C131.86238281 27.73089844 132.72476563 28.46179688 133.61328125 29.21484375 C145.472624 39.4545494 155.85089011 53.47718756 162 68 C160.74026519 71.77920442 159.36596382 72.38389848 156.08984375 74.57421875 C155.10048828 75.24130859 154.11113281 75.90839844 153.09179688 76.59570312 C152.05087891 77.28599609 151.00996094 77.97628906 149.9375 78.6875 C148.89271484 79.38939453 147.84792969 80.09128906 146.77148438 80.81445312 C144.18566798 82.5501381 141.59510954 84.27825375 139 86 C136.00081349 83.18624426 134.6161735 80.36810245 132.875 76.625 C123.163263 56.65259042 109.1302963 43.2936836 88.9375 34.1875 C87.98278809 33.75195801 87.98278809 33.75195801 87.00878906 33.30761719 C68.75369353 25.43888135 46.72060717 28.43536296 28 28 C28 87.4 28 146.8 28 208 C75.92710332 208.58684172 75.92710332 208.58684172 114.71875 186.328125 C121.05647579 179.57042943 126.5916046 172.41635819 131.06640625 164.296875 C131.41944824 163.65854736 131.77249023 163.02021973 132.13623047 162.36254883 C132.82483678 161.10159649 133.50022397 159.83331353 134.16064453 158.55737305 C136.51246691 154.20437467 136.51246691 154.20437467 138.90209961 153.20263672 C142.65754428 152.83989739 145.44145328 155.59417188 148.375 157.6875 C149.02210938 158.13544922 149.66921875 158.58339844 150.3359375 159.04492188 C151.61492813 159.93067446 152.89072766 160.82105495 154.16308594 161.71630859 C156.74675469 163.52185489 159.37055374 165.26196044 162 167 C159.64507898 185.35767976 141.02948661 203.89655053 126.91015625 214.91796875 C118.43807094 220.97920563 109.57254935 225.42809542 99.9375 229.3125 C98.78145264 229.80085327 98.78145264 229.80085327 97.60205078 230.29907227 C68.87074033 241.31455476 25.99902086 236 0 236 C0 158.12 0 80.24 0 0 Z" transform="translate(531,424)"/><path fill="#F8F8F7" d="M0 0 C8.91 0 17.82 0 27 0 C27 109.89 27 219.78 27 333 C18.09 333 9.18 333 0 333 C0 223.11 0 113.22 0 0 Z" transform="translate(470,376)"/><path fill="#F9F8F8" d="M0 0 C8.91 0 17.82 0 27 0 C27.09279066 23.34037435 27.16407795 46.68070392 27.20724869 70.02122593 C27.22783078 80.85983644 27.25586779 91.69832989 27.30175781 102.53686523 C27.34175924 111.9891469 27.36746441 121.44134373 27.37635398 130.89370769 C27.38154627 135.8937744 27.3936584 140.89359853 27.42292023 145.89358711 C27.45030006 150.6107219 27.45839993 155.3275168 27.45243073 160.04472351 C27.45352096 161.76549064 27.46133931 163.48627049 27.4768219 165.20696831 C27.65817007 186.42259802 22.2598555 204.45470836 7 220 C-9.19271942 233.7829545 -26.17773103 236.58645859 -47 235 C-62.37990901 233.04035986 -74.55112734 224.92602582 -86 215 C-87.66102505 213.65964507 -89.3260676 212.32420009 -91 211 C-90.43379699 207.22531329 -88.87731019 205.52448107 -86.18359375 202.890625 C-85.41982422 202.13652344 -84.65605469 201.38242187 -83.86914062 200.60546875 C-83.06669922 199.82816406 -82.26425781 199.05085937 -81.4375 198.25 C-80.63119141 197.45722656 -79.82488281 196.66445313 -78.99414062 195.84765625 C-77.00266222 193.89152954 -75.00452279 191.94274281 -73 190 C-69.65299885 191.59955315 -67.09135601 193.47704031 -64.25 195.875 C-53.36831799 204.69539423 -41.94694813 207.3985408 -28 206 C-18.99387969 204.08796481 -12.42065816 199.83771138 -7.25 192.25 C0.49559217 178.74617155 -0.85233472 162.43146488 -0.79467773 147.35595703 C-0.78507173 145.73814662 -0.77506018 144.12033858 -0.76467896 142.50253296 C-0.73791824 138.1564085 -0.71675481 133.81027349 -0.69667697 129.46411371 C-0.674637 124.90508315 -0.64733741 120.34608398 -0.62062073 115.78707886 C-0.57093508 107.17439912 -0.52590793 98.56170174 -0.48259836 89.94898784 C-0.43301823 80.13504437 -0.37817793 70.32113243 -0.32291877 60.50721955 C-0.20946968 40.33817565 -0.10273816 20.16910106 0 0 Z" transform="translate(409,424)"/><path fill="#C7E4EA" d="M0 0 C2.0625 0.4375 2.0625 0.4375 4 1 C3.0290884 2.70746522 2.05709565 4.41433011 1.078125 6.1171875 C0.18584653 7.67544194 -0.69046084 9.24282951 -1.5625 10.8125 C-3 13 -3 13 -6 15 C-6.33 15.845625 -6.66 16.69125 -7 17.5625 C-7.33 18.366875 -7.66 19.17125 -8 20 C-8.99 20.33 -9.98 20.66 -11 21 C-11 21.66 -11 22.32 -11 23 C-11.66 23 -12.32 23 -13 23 C-13.33 25.31 -13.66 27.62 -14 30 C-14.928125 30.12375 -14.928125 30.12375 -15.875 30.25 C-18.69153372 31.24407072 -18.69594757 32.38715314 -20 35 C-23.4390165 38.69889181 -26.77411192 41.68327951 -32 42 C-30.9790625 40.9790625 -30.9790625 40.9790625 -29.9375 39.9375 C-29.47472656 39.46957031 -29.01195312 39.00164063 -28.53515625 38.51953125 C-27.54279632 37.53727168 -26.53059744 36.57448962 -25.49609375 35.63671875 C-15.85126823 26.64262844 -8.75336508 15.1132824 -2.4609375 3.6328125 C-1 1 -1 1 0 0 Z" transform="translate(669,577)"/><path fill="#D3F0F0" d="M0 0 C1.32 0.33 2.64 0.66 4 1 C3.03052539 2.7049381 2.059942 4.40926162 1.08203125 6.109375 C0.16554757 7.71073998 -0.73186908 9.3229941 -1.625 10.9375 C-2.07875 11.618125 -2.5325 12.29875 -3 13 C-3.66 13 -4.32 13 -5 13 C-4.54996653 7.37458159 -3.31558515 4.38512875 0 0 Z" transform="translate(669,577)"/><path fill="#D6EBED" d="M0 0 C0.99 0.33 1.98 0.66 3 1 C-4.53210733 10.13837805 -4.53210733 10.13837805 -9 12 C-9.99 11.67 -10.98 11.34 -12 11 C-8.04 7.37 -4.08 3.74 0 0 Z" transform="translate(649,607)"/></svg>