<svg xmlns="http://www.w3.org/2000/svg" aria-label="Dodgers Deferred Payout Timeline 2028 through 2043 showing annual obligations peaking at over 100 million in 2038 to 2039" role="img" viewBox="0 0 720 420"><rect width="720" height="420" fill="#1a1a2e" rx="8"/><text x="360" y="32" fill="#fff" font-family="Inter, system-ui, sans-serif" font-size="15" font-weight="700" text-anchor="middle">Dodgers Deferred Payout Obligations (2028-2043)</text><text x="360" y="52" fill="#aaa" font-family="Inter, system-ui, sans-serif" font-size="11" text-anchor="middle">Annual deferred salary payments in millions. Ohtani highlighted.</text><text x="38" y="92" fill="#aaa" font-family="Inter, system-ui, sans-serif" font-size="10" text-anchor="end">$100M</text><text x="38" y="152" fill="#aaa" font-family="Inter, system-ui, sans-serif" font-size="10" text-anchor="end">$80M</text><text x="38" y="212" fill="#aaa" font-family="Inter, system-ui, sans-serif" font-size="10" text-anchor="end">$60M</text><text x="38" y="272" fill="#aaa" font-family="Inter, system-ui, sans-serif" font-size="10" text-anchor="end">$40M</text><text x="38" y="332" fill="#aaa" font-family="Inter, system-ui, sans-serif" font-size="10" text-anchor="end">$20M</text><line x1="44" x2="700" y1="88" y2="88" stroke="#335" stroke-width=".5"/><line x1="44" x2="700" y1="148" y2="148" stroke="#335" stroke-width=".5"/><line x1="44" x2="700" y1="208" y2="208" stroke="#335" stroke-width=".5"/><line x1="44" x2="700" y1="268" y2="268" stroke="#335" stroke-width=".5"/><line x1="44" x2="700" y1="328" y2="328" stroke="#335" stroke-width=".5"/><line x1="44" x2="700" y1="368" y2="368" stroke="#557" stroke-width="1"/><rect width="36" height="11.2" x="52" y="356.8" fill="#4a6fa5" rx="2"/><text x="70" y="388" fill="#aaa" font-family="Inter, system-ui, sans-serif" font-size="9" text-anchor="middle">2028</text><text x="70" y="352" fill="#ccc" font-family="Inter, system-ui, sans-serif" font-size="9" text-anchor="middle">$4</text><rect width="36" height="11.2" x="93" y="356.8" fill="#4a6fa5" rx="2"/><text x="111" y="388" fill="#aaa" font-family="Inter, system-ui, sans-serif" font-size="9" text-anchor="middle">2029</text><text x="111" y="352" fill="#ccc" font-family="Inter, system-ui, sans-serif" font-size="9" text-anchor="middle">$4</text><rect width="36" height="39.2" x="134" y="328.8" fill="#4a6fa5" rx="2"/><text x="152" y="388" fill="#aaa" font-family="Inter, system-ui, sans-serif" font-size="9" text-anchor="middle">2030</text><text x="152" y="324" fill="#ccc" font-family="Inter, system-ui, sans-serif" font-size="9" text-anchor="middle">$14</text><rect width="36" height="39.2" x="175" y="328.8" fill="#4a6fa5" rx="2"/><text x="193" y="388" fill="#aaa" font-family="Inter, system-ui, sans-serif" font-size="9" text-anchor="middle">2031</text><text x="193" y="324" fill="#ccc" font-family="Inter, system-ui, sans-serif" font-size="9" text-anchor="middle">$14</text><rect width="36" height="39.2" x="216" y="328.8" fill="#4a6fa5" rx="2"/><text x="234" y="388" fill="#aaa" font-family="Inter, system-ui, sans-serif" font-size="9" text-anchor="middle">2032</text><text x="234" y="324" fill="#ccc" font-family="Inter, system-ui, sans-serif" font-size="9" text-anchor="middle">$14</text><rect width="36" height="72.8" x="257" y="295.2" fill="#4a6fa5" rx="2"/><text x="275" y="388" fill="#aaa" font-family="Inter, system-ui, sans-serif" font-size="9" text-anchor="middle">2033</text><text x="275" y="290" fill="#ccc" font-family="Inter, system-ui, sans-serif" font-size="9" text-anchor="middle">$26</text><rect width="36" height="263.2" x="298" y="104.8" fill="#4a6fa5" rx="2"/><rect width="36" height="190.4" x="298" y="104.8" fill="#c0392b" rx="2"/><text x="316" y="388" fill="#aaa" font-family="Inter, system-ui, sans-serif" font-size="9" text-anchor="middle">2034</text><text x="316" y="100" fill="#fff" font-family="Inter, system-ui, sans-serif" font-size="9" text-anchor="middle">$94</text><rect width="36" height="280" x="339" y="88" fill="#4a6fa5" rx="2"/><rect width="36" height="190.4" x="339" y="88" fill="#c0392b" rx="2"/><text x="357" y="388" fill="#aaa" font-family="Inter, system-ui, sans-serif" font-size="9" text-anchor="middle">2035</text><text x="357" y="83" fill="#fff" font-family="Inter, system-ui, sans-serif" font-size="9" text-anchor="middle">$100</text><rect width="36" height="285.6" x="380" y="82.4" fill="#4a6fa5" rx="2"/><rect width="36" height="190.4" x="380" y="82.4" fill="#c0392b" rx="2"/><text x="398" y="388" fill="#aaa" font-family="Inter, system-ui, sans-serif" font-size="9" text-anchor="middle">2036</text><text x="398" y="77" fill="#fff" font-family="Inter, system-ui, sans-serif" font-size="9" text-anchor="middle">$102</text><rect width="36" height="285.6" x="421" y="82.4" fill="#4a6fa5" rx="2"/><rect width="36" height="190.4" x="421" y="82.4" fill="#c0392b" rx="2"/><text x="439" y="388" fill="#aaa" font-family="Inter, system-ui, sans-serif" font-size="9" text-anchor="middle">2037</text><text x="439" y="77" fill="#fff" font-family="Inter, system-ui, sans-serif" font-size="9" text-anchor="middle">$102</text><rect width="36" height="285.6" x="462" y="82.4" fill="#4a6fa5" rx="2"/><rect width="36" height="190.4" x="462" y="82.4" fill="#c0392b" rx="2"/><text x="480" y="388" fill="#aaa" font-family="Inter, system-ui, sans-serif" font-size="9" text-anchor="middle">2038</text><text x="480" y="77" fill="#fff" font-family="Inter, system-ui, sans-serif" font-size="9" text-anchor="middle">$102</text><rect width="36" height="285.6" x="503" y="82.4" fill="#4a6fa5" rx="2"/><rect width="36" height="190.4" x="503" y="82.4" fill="#c0392b" rx="2"/><text x="521" y="388" fill="#aaa" font-family="Inter, system-ui, sans-serif" font-size="9" text-anchor="middle">2039</text><text x="521" y="77" fill="#fff" font-family="Inter, system-ui, sans-serif" font-size="9" text-anchor="middle">$102</text><rect width="36" height="246.4" x="544" y="121.6" fill="#4a6fa5" rx="2"/><rect width="36" height="190.4" x="544" y="121.6" fill="#c0392b" rx="2"/><text x="562" y="388" fill="#aaa" font-family="Inter, system-ui, sans-serif" font-size="9" text-anchor="middle">2040</text><text x="562" y="117" fill="#fff" font-family="Inter, system-ui, sans-serif" font-size="9" text-anchor="middle">$88</text><rect width="36" height="229.6" x="585" y="138.4" fill="#4a6fa5" rx="2"/><rect width="36" height="190.4" x="585" y="138.4" fill="#c0392b" rx="2"/><text x="603" y="388" fill="#aaa" font-family="Inter, system-ui, sans-serif" font-size="9" text-anchor="middle">2041</text><text x="603" y="134" fill="#fff" font-family="Inter, system-ui, sans-serif" font-size="9" text-anchor="middle">$82</text><rect width="36" height="212.8" x="626" y="155.2" fill="#4a6fa5" rx="2"/><rect width="36" height="190.4" x="626" y="155.2" fill="#c0392b" rx="2"/><text x="644" y="388" fill="#aaa" font-family="Inter, system-ui, sans-serif" font-size="9" text-anchor="middle">2042</text><text x="644" y="150" fill="#fff" font-family="Inter, system-ui, sans-serif" font-size="9" text-anchor="middle">$76</text><rect width="36" height="190.4" x="667" y="177.6" fill="#c0392b" rx="2"/><text x="685" y="388" fill="#aaa" font-family="Inter, system-ui, sans-serif" font-size="9" text-anchor="middle">2043</text><text x="685" y="173" fill="#fff" font-family="Inter, system-ui, sans-serif" font-size="9" text-anchor="middle">$68</text><rect width="12" height="12" x="52" y="400" fill="#c0392b" rx="2"/><text x="70" y="410" fill="#ccc" font-family="Inter, system-ui, sans-serif" font-size="10">Ohtani ($68M/yr)</text><rect width="12" height="12" x="180" y="400" fill="#4a6fa5" rx="2"/><text x="198" y="410" fill="#ccc" font-family="Inter, system-ui, sans-serif" font-size="10">All other deferred players</text><line x1="380" x2="540" y1="72" y2="72" stroke="#e74c3c" stroke-dasharray="4 3" stroke-width="1"/><text x="460" y="67" fill="#e74c3c" font-family="Inter, system-ui, sans-serif" font-size="10" font-weight="600" text-anchor="middle">Peak: ~$102M/yr</text></svg>