<svg xmlns="http://www.w3.org/2000/svg" width="100%" font-family="Georgia, serif" viewBox="0 0 680 400"><defs><marker id="arrow" markerHeight="6" markerWidth="6" orient="auto-start-reverse" refX="8" refY="5" viewBox="0 0 10 10"><path fill="none" stroke="#888" stroke-linecap="round" stroke-linejoin="round" stroke-width="1.5" d="M2 1L8 5L2 9"/></marker></defs><text x="150" y="24" fill="#fff" font-family="Georgia, serif" font-size="14" font-weight="bold" text-anchor="middle">The patchwork</text><text x="150" y="42" fill="#ccc" font-family="Georgia, serif" font-size="12" text-anchor="middle">Teams pick independently</text><rect width="100" height="40" x="40" y="58" fill="#E6F1FB" stroke="#185FA5" stroke-width=".5" rx="8"/><text x="90" y="83" fill="#0C447C" font-family="Georgia, serif" font-size="13" font-weight="bold" text-anchor="middle">Software</text><text x="90" y="112" fill="#ccc" font-family="Georgia, serif" font-size="11" text-anchor="middle">Jira</text><rect width="100" height="40" x="160" y="58" fill="#E1F5EE" stroke="#0F6E56" stroke-width=".5" rx="8"/><text x="210" y="83" fill="#085041" font-family="Georgia, serif" font-size="13" font-weight="bold" text-anchor="middle">PMO</text><text x="210" y="112" fill="#ccc" font-family="Georgia, serif" font-size="11" text-anchor="middle">Smartsheet</text><rect width="100" height="40" x="40" y="130" fill="#FAEEDA" stroke="#854F0B" stroke-width=".5" rx="8"/><text x="90" y="155" fill="#633806" font-family="Georgia, serif" font-size="13" font-weight="bold" text-anchor="middle">Marketing</text><text x="90" y="184" fill="#ccc" font-family="Georgia, serif" font-size="11" text-anchor="middle">Asana</text><rect width="100" height="40" x="160" y="130" fill="#e8e8e6" stroke="#aaa" stroke-width=".5" rx="8"/><text x="210" y="155" fill="#333" font-family="Georgia, serif" font-size="13" font-weight="bold" text-anchor="middle">Finance</text><text x="210" y="184" fill="#ccc" font-family="Georgia, serif" font-size="11" text-anchor="middle">Spreadsheet</text><rect width="220" height="48" x="40" y="204" fill="none" stroke="#888" stroke-dasharray="4 3" stroke-width=".5" rx="8"/><text x="150" y="224" fill="#ccc" font-family="Georgia, serif" font-size="12" text-anchor="middle">Portfolio visibility?</text><text x="150" y="242" fill="#ff6b6b" font-family="Georgia, serif" font-size="13" font-weight="bold" text-anchor="middle">Nobody knows.</text><line x1="310" x2="310" y1="20" y2="370" stroke="#555" stroke-dasharray="4 3" stroke-width=".5"/><text x="500" y="24" fill="#fff" font-family="Georgia, serif" font-size="14" font-weight="bold" text-anchor="middle">The fix</text><text x="500" y="42" fill="#ccc" font-family="Georgia, serif" font-size="12" text-anchor="middle">One platform, configured per team</text><rect width="300" height="186" x="340" y="58" fill="#2a2860" stroke="#7B74E0" stroke-width=".5" rx="12"/><text x="490" y="82" fill="#fff" font-family="Georgia, serif" font-size="14" font-weight="bold" text-anchor="middle">One platform</text><rect width="124" height="36" x="356" y="96" fill="#E6F1FB" stroke="#185FA5" stroke-width=".5" rx="6"/><text x="418" y="119" fill="#0C447C" font-family="Georgia, serif" font-size="12" font-weight="bold" text-anchor="middle">Software workspace</text><rect width="124" height="36" x="496" y="96" fill="#E1F5EE" stroke="#0F6E56" stroke-width=".5" rx="6"/><text x="558" y="119" fill="#085041" font-family="Georgia, serif" font-size="12" font-weight="bold" text-anchor="middle">PMO workspace</text><rect width="124" height="36" x="356" y="146" fill="#FAEEDA" stroke="#854F0B" stroke-width=".5" rx="6"/><text x="418" y="169" fill="#633806" font-family="Georgia, serif" font-size="12" font-weight="bold" text-anchor="middle">Marketing workspace</text><rect width="124" height="36" x="496" y="146" fill="#e8e8e6" stroke="#aaa" stroke-width=".5" rx="6"/><text x="558" y="169" fill="#333" font-family="Georgia, serif" font-size="12" font-weight="bold" text-anchor="middle">Finance workspace</text><line x1="490" x2="490" y1="244" y2="268" stroke="#aaa" stroke-width="1" marker-end="url(#arrow)"/><rect width="240" height="44" x="370" y="270" fill="#4A44C0" stroke="#7B74E0" stroke-width=".5" rx="8"/><text x="490" y="297" fill="#fff" font-family="Georgia, serif" font-size="13" font-weight="bold" text-anchor="middle">Portfolio dashboard</text><line x1="40" x2="640" y1="342" y2="342" stroke="#555" stroke-width=".5"/><text x="40" y="364" fill="#aaa" font-family="Georgia, serif" font-size="12" font-style="italic">Teams keep their workflow. Leadership gets visibility. Everyone wins.</text></svg>