<svg xmlns="http://www.w3.org/2000/svg" aria-label="Perverse Incentive Loop: Rule creates behavior, behavior creates outcome, outcome triggers redesign, redesign creates new rule" role="img" viewBox="0 0 680 540"><defs><marker id="arrow" markerHeight="6" markerWidth="6" orient="auto-start-reverse" refX="8" refY="5" viewBox="0 0 10 10"><path fill="none" stroke="#9ca3af" stroke-linecap="round" stroke-linejoin="round" stroke-width="1.5" d="M2 1L8 5L2 9"/></marker></defs><text x="340" y="36" fill="#fff" font-family="Inter, system-ui, sans-serif" font-size="16" font-weight="500" text-anchor="middle">The perverse incentive loop</text><circle cx="340" cy="270" r="170" fill="none" stroke="#d1d5db" stroke-dasharray="4 4" stroke-width=".5" opacity=".3"/><path fill="none" stroke="#9ca3af" stroke-width="1.5" marker-end="url(#arrow)" d="M 396 104 A 170 170 0 0 1 506 216"/><path fill="none" stroke="#9ca3af" stroke-width="1.5" marker-end="url(#arrow)" d="M 506 324 A 170 170 0 0 1 396 436"/><path fill="none" stroke="#9ca3af" stroke-width="1.5" marker-end="url(#arrow)" d="M 284 436 A 170 170 0 0 1 174 324"/><path fill="none" stroke="#9ca3af" stroke-width="1.5" marker-end="url(#arrow)" d="M 174 216 A 170 170 0 0 1 284 104"/><rect width="200" height="44" x="240" y="72" fill="#1a1a2e" stroke="#1a1a2e" stroke-width=".5" rx="22"/><text x="340" y="94" fill="#fff" dominant-baseline="central" font-family="Inter, system-ui, sans-serif" font-size="14" font-weight="500" text-anchor="middle">Rule / policy</text><rect width="200" height="44" x="420" y="248" fill="#085041" stroke="#085041" stroke-width=".5" rx="22"/><text x="520" y="270" fill="#fff" dominant-baseline="central" font-family="Inter, system-ui, sans-serif" font-size="14" font-weight="500" text-anchor="middle">Rational behavior</text><rect width="200" height="44" x="240" y="424" fill="#a32d2d" stroke="#a32d2d" stroke-width=".5" rx="22"/><text x="340" y="446" fill="#fff" dominant-baseline="central" font-family="Inter, system-ui, sans-serif" font-size="14" font-weight="500" text-anchor="middle">Unintended outcome</text><rect width="200" height="44" x="60" y="248" fill="#185fa5" stroke="#185fa5" stroke-width=".5" rx="22"/><text x="160" y="270" fill="#fff" dominant-baseline="central" font-family="Inter, system-ui, sans-serif" font-size="14" font-weight="500" text-anchor="middle">System redesign</text><text x="476" y="156" fill="#9ca3af" font-family="Inter, system-ui, sans-serif" font-size="12" font-style="italic" text-anchor="middle">creates</text><text x="476" y="392" fill="#9ca3af" font-family="Inter, system-ui, sans-serif" font-size="12" font-style="italic" text-anchor="middle">produces</text><text x="204" y="392" fill="#9ca3af" font-family="Inter, system-ui, sans-serif" font-size="12" font-style="italic" text-anchor="middle">triggers</text><text x="204" y="156" fill="#9ca3af" font-family="Inter, system-ui, sans-serif" font-size="12" font-style="italic" text-anchor="middle">generates new</text><text x="340" y="510" fill="#9ca3af" font-family="Inter, system-ui, sans-serif" font-size="11" text-anchor="middle">Service time rule → Hold Bryant in minors → Lost value on Opening Day → CBA redesigns incentives</text></svg>