<svg xmlns="http://www.w3.org/2000/svg" width="100%" viewBox="0 0 680 440"><style>text{font-family:system-ui,-apple-system,sans-serif}.th{font-size:14px;font-weight:500;fill:#d3d1c7}.ts{font-size:12px;font-weight:400;fill:#b4b2a9}.track{fill:#f1efe8;stroke:#b4b2a9}.tick{stroke:#888780;stroke-width:.5}.teal-fill{fill:#e1f5ee;stroke:#0f6e56}.teal-text{fill:#085041}.teal-sub{fill:#0f6e56}.blue-fill{fill:#e6f1fb;stroke:#185fa5}.blue-text{fill:#0c447c}.blue-sub{fill:#185fa5}.coral-fill{fill:#faece7;stroke:#993c1d}.coral-text{fill:#712b13}.coral-sub{fill:#993c1d}.pink-fill{fill:#fbeaf0;stroke:#993556}.pink-sub{fill:#993556}.amber-fill{fill:#faeeda;stroke:#854f0b}.amber-sub{fill:#854f0b}</style><text x="340" y="30" class="th" text-anchor="middle">Typical PI cycle (~10 weeks)</text><rect width="600" height="8" x="40" y="50" stroke-width=".5" class="track" rx="4"/><line x1="40" x2="40" y1="54" y2="68" class="tick"/><text x="40" y="82" class="ts" text-anchor="middle">Wk 0</text><line x1="160" x2="160" y1="54" y2="68" class="tick"/><text x="160" y="82" class="ts" text-anchor="middle">Wk 2</text><line x1="280" x2="280" y1="54" y2="68" class="tick"/><text x="280" y="82" class="ts" text-anchor="middle">Wk 4</text><line x1="400" x2="400" y1="54" y2="68" class="tick"/><text x="400" y="82" class="ts" text-anchor="middle">Wk 6</text><line x1="520" x2="520" y1="54" y2="68" class="tick"/><text x="520" y="82" class="ts" text-anchor="middle">Wk 8</text><line x1="640" x2="640" y1="54" y2="68" class="tick"/><text x="640" y="82" class="ts" text-anchor="middle">Wk 10</text><rect width="120" height="44" x="40" y="100" stroke-width=".5" class="teal-fill" rx="8"/><text x="100" y="115" class="th teal-text" dominant-baseline="central" text-anchor="middle">PI Planning</text><text x="100" y="133" class="ts teal-sub" dominant-baseline="central" text-anchor="middle">2-day event</text><rect width="360" height="44" x="160" y="100" stroke-width=".5" class="blue-fill" rx="8"/><text x="340" y="115" class="th blue-text" dominant-baseline="central" text-anchor="middle">PI Execution (iterations 1-5)</text><text x="340" y="133" class="ts blue-sub" dominant-baseline="central" text-anchor="middle">ART Sync, System Demos, coaching</text><rect width="120" height="44" x="520" y="100" stroke-width=".5" class="coral-fill" rx="8"/><text x="580" y="115" class="th coral-text" dominant-baseline="central" text-anchor="middle">I&amp;A + next PI</text><text x="580" y="133" class="ts coral-sub" dominant-baseline="central" text-anchor="middle">Inspect &amp; Adapt</text><text x="40" y="180" class="th">RTE activities by phase</text><rect width="200" height="36" x="40" y="196" stroke-width=".5" class="teal-fill" rx="6"/><text x="140" y="214" class="ts teal-sub" dominant-baseline="central" text-anchor="middle">Backlog readiness check</text><rect width="200" height="36" x="250" y="196" stroke-width=".5" class="teal-fill" rx="6"/><text x="350" y="214" class="ts teal-sub" dominant-baseline="central" text-anchor="middle">Facilitate planning event</text><rect width="180" height="36" x="460" y="196" stroke-width=".5" class="teal-fill" rx="6"/><text x="550" y="214" class="ts teal-sub" dominant-baseline="central" text-anchor="middle">Confidence vote + close</text><rect width="145" height="36" x="40" y="244" stroke-width=".5" class="blue-fill" rx="6"/><text x="112" y="262" class="ts blue-sub" dominant-baseline="central" text-anchor="middle">ART Sync (weekly)</text><rect width="165" height="36" x="195" y="244" stroke-width=".5" class="blue-fill" rx="6"/><text x="277" y="262" class="ts blue-sub" dominant-baseline="central" text-anchor="middle">Impediment removal</text><rect width="145" height="36" x="370" y="244" stroke-width=".5" class="blue-fill" rx="6"/><text x="442" y="262" class="ts blue-sub" dominant-baseline="central" text-anchor="middle">System Demos</text><rect width="115" height="36" x="525" y="244" stroke-width=".5" class="blue-fill" rx="6"/><text x="582" y="262" class="ts blue-sub" dominant-baseline="central" text-anchor="middle">ROAM risks</text><rect width="145" height="36" x="40" y="292" stroke-width=".5" class="pink-fill" rx="6"/><text x="112" y="310" class="ts pink-sub" dominant-baseline="central" text-anchor="middle">Coach Syncs</text><rect width="195" height="36" x="195" y="292" stroke-width=".5" class="pink-fill" rx="6"/><text x="292" y="310" class="ts pink-sub" dominant-baseline="central" text-anchor="middle">Powerful questions + 1:1s</text><rect width="240" height="36" x="400" y="292" stroke-width=".5" class="pink-fill" rx="6"/><text x="520" y="310" class="ts pink-sub" dominant-baseline="central" text-anchor="middle">SM/TC facilitation coaching</text><rect width="170" height="36" x="40" y="340" stroke-width=".5" class="coral-fill" rx="6"/><text x="125" y="358" class="ts coral-sub" dominant-baseline="central" text-anchor="middle">Flow metrics review</text><rect width="200" height="36" x="220" y="340" stroke-width=".5" class="coral-fill" rx="6"/><text x="320" y="358" class="ts coral-sub" dominant-baseline="central" text-anchor="middle">Value stream mapping</text><rect width="210" height="36" x="430" y="340" stroke-width=".5" class="coral-fill" rx="6"/><text x="535" y="358" class="ts coral-sub" dominant-baseline="central" text-anchor="middle">Dependency elimination</text><rect width="200" height="36" x="40" y="388" stroke-width=".5" class="amber-fill" rx="6"/><text x="140" y="406" class="ts amber-sub" dominant-baseline="central" text-anchor="middle">Inspect &amp; Adapt workshop</text><rect width="190" height="36" x="250" y="388" stroke-width=".5" class="amber-fill" rx="6"/><text x="345" y="406" class="ts amber-sub" dominant-baseline="central" text-anchor="middle">SAFe assessments</text><rect width="190" height="36" x="450" y="388" stroke-width=".5" class="amber-fill" rx="6"/><text x="545" y="406" class="ts amber-sub" dominant-baseline="central" text-anchor="middle">VMO/LACE collaboration</text></svg>