<svg xmlns="http://www.w3.org/2000/svg" font-family="Georgia, serif" viewBox="0 0 720 400"><text x="360" y="24" fill="#fff" font-size="15" font-weight="bold" text-anchor="middle">The Scrum Forcing Anti-Pattern</text><line x1="40" x2="680" y1="38" y2="38" stroke="#555" stroke-width=".5"/><text x="185" y="62" fill="#F87171" font-size="14" font-weight="bold" text-anchor="middle">Before: Scrum on service work</text><rect width="290" height="268" x="40" y="76" fill="#1a1216" stroke="#7F1D1D" stroke-width="1" rx="10"/><text x="185" y="98" fill="#aaa" font-size="12" text-anchor="middle">Sprint 7 plan</text><rect width="120" height="28" x="56" y="110" fill="#1e3a5f" stroke="#3B82F6" stroke-width=".5" rx="5"/><text x="116" y="129" fill="#7BB8F5" font-size="10" text-anchor="middle">Story A (5 pts)</text><rect width="120" height="28" x="56" y="144" fill="#1e3a5f" stroke="#3B82F6" stroke-width=".5" rx="5"/><text x="116" y="163" fill="#7BB8F5" font-size="10" text-anchor="middle">Story B (3 pts)</text><rect width="120" height="28" x="56" y="178" fill="#1e3a5f" stroke="#3B82F6" stroke-width=".5" rx="5"/><text x="116" y="197" fill="#7BB8F5" font-size="10" text-anchor="middle">Story C (8 pts)</text><rect width="120" height="28" x="194" y="110" fill="#5c1a1a" stroke="#EF4444" stroke-width=".5" rx="5"/><text x="254" y="129" fill="#FCA5A5" font-size="10" text-anchor="middle">P1 incident</text><rect width="120" height="28" x="194" y="144" fill="#5c1a1a" stroke="#EF4444" stroke-width=".5" rx="5"/><text x="254" y="163" fill="#FCA5A5" font-size="10" text-anchor="middle">Service ticket x3</text><rect width="120" height="28" x="194" y="178" fill="#5c1a1a" stroke="#EF4444" stroke-width=".5" rx="5"/><text x="254" y="197" fill="#FCA5A5" font-size="10" text-anchor="middle">Data feed outage</text><rect width="120" height="28" x="194" y="212" fill="#5c1a1a" stroke="#EF4444" stroke-width=".5" rx="5"/><text x="254" y="231" fill="#FCA5A5" font-size="10" text-anchor="middle">Urgent escalation</text><line x1="56" x2="314" y1="258" y2="258" stroke="#7F1D1D" stroke-dasharray="4" stroke-width=".5"/><text x="185" y="278" fill="#F87171" font-size="11" font-weight="bold" text-anchor="middle">Result: 2 of 3 stories carry over</text><text x="185" y="296" fill="#aaa" font-size="10" text-anchor="middle">Velocity: meaningless</text><text x="185" y="312" fill="#aaa" font-size="10" text-anchor="middle">Sprint commitment: fiction</text><text x="185" y="328" fill="#aaa" font-size="10" text-anchor="middle">Team trust in process: gone</text><text x="370" y="210" fill="#aaa" font-size="24" text-anchor="middle">➡</text><text x="540" y="62" fill="#6EE7B7" font-size="14" font-weight="bold" text-anchor="middle">After: Kanban for service work</text><rect width="280" height="268" x="400" y="76" fill="#0a1a14" stroke="#065F46" stroke-width="1" rx="10"/><text x="440" y="98" fill="#ccc" font-size="10" font-weight="bold" text-anchor="middle">Queue</text><text x="530" y="98" fill="#ccc" font-size="10" font-weight="bold" text-anchor="middle">In Progress</text><text x="630" y="98" fill="#ccc" font-size="10" font-weight="bold" text-anchor="middle">Done</text><line x1="480" x2="480" y1="86" y2="310" stroke="#065F46" stroke-width=".5"/><line x1="580" x2="580" y1="86" y2="310" stroke="#065F46" stroke-width=".5"/><text x="530" y="114" fill="#D97706" font-size="9" text-anchor="middle">WIP limit: 3</text><rect width="56" height="24" x="412" y="122" fill="#3d2508" stroke="#D97706" stroke-width=".5" rx="4"/><text x="440" y="138" fill="#FBBF24" font-size="9" text-anchor="middle">Ticket</text><rect width="56" height="24" x="412" y="152" fill="#3d2508" stroke="#D97706" stroke-width=".5" rx="4"/><text x="440" y="168" fill="#FBBF24" font-size="9" text-anchor="middle">Ticket</text><rect width="56" height="24" x="412" y="182" fill="#5c1a1a" stroke="#EF4444" stroke-width=".5" rx="4"/><text x="440" y="198" fill="#FCA5A5" font-size="9" text-anchor="middle">P1</text><rect width="68" height="24" x="496" y="122" fill="#0d3d24" stroke="#10B981" stroke-width=".5" rx="4"/><text x="530" y="138" fill="#6EE7B7" font-size="9" text-anchor="middle">Ticket</text><rect width="68" height="24" x="496" y="152" fill="#0d3d24" stroke="#10B981" stroke-width=".5" rx="4"/><text x="530" y="168" fill="#6EE7B7" font-size="9" text-anchor="middle">Data fix</text><rect width="68" height="24" x="496" y="182" fill="#0d3d24" stroke="#10B981" stroke-width=".5" rx="4"/><text x="530" y="198" fill="#6EE7B7" font-size="9" text-anchor="middle">Escalation</text><rect width="68" height="24" x="594" y="122" fill="#1e1e1e" stroke="#444" stroke-width=".5" rx="4"/><text x="628" y="138" fill="#888" font-size="9" text-anchor="middle">Resolved</text><rect width="68" height="24" x="594" y="152" fill="#1e1e1e" stroke="#444" stroke-width=".5" rx="4"/><text x="628" y="168" fill="#888" font-size="9" text-anchor="middle">Resolved</text><rect width="68" height="24" x="594" y="182" fill="#1e1e1e" stroke="#444" stroke-width=".5" rx="4"/><text x="628" y="198" fill="#888" font-size="9" text-anchor="middle">Resolved</text><rect width="68" height="24" x="594" y="212" fill="#1e1e1e" stroke="#444" stroke-width=".5" rx="4"/><text x="628" y="228" fill="#888" font-size="9" text-anchor="middle">Resolved</text><line x1="412" x2="668" y1="258" y2="258" stroke="#065F46" stroke-dasharray="4" stroke-width=".5"/><text x="540" y="278" fill="#6EE7B7" font-size="11" font-weight="bold" text-anchor="middle">Result: Work flows continuously</text><text x="540" y="296" fill="#aaa" font-size="10" text-anchor="middle">Cycle time: tracked per item</text><text x="540" y="312" fill="#aaa" font-size="10" text-anchor="middle">No carryover, no broken commitments</text><text x="540" y="328" fill="#aaa" font-size="10" text-anchor="middle">Team trusts the process</text><line x1="40" x2="680" y1="358" y2="358" stroke="#555" stroke-width=".5"/><text x="360" y="380" fill="#aaa" font-size="12" font-style="italic" text-anchor="middle">Same team. Same work. Different delivery model. Different outcome.</text></svg>